<svg width="17" height="10" viewBox="0 0 17 10" fill="none" xmlns="http://www.w3.org/2000/svg">
<path d="M14.0825 3.71403L14.2231 3.66163L14.223 3.66154L14.2229 3.6612L14.2224 3.65984L14.2204 3.6545L14.2126 3.63362L14.1829 3.55411L14.0759 3.2678C13.9866 3.0294 13.8659 2.70794 13.7403 2.37576C13.4906 1.71536 13.2175 1.0017 13.1364 0.824806C13.0382 0.610513 12.8831 0.511633 12.7473 0.471429C12.6817 0.452008 12.6229 0.446809 12.5801 0.446435C12.5586 0.446246 12.5406 0.447276 12.5273 0.448475C12.5236 0.448811 12.5202 0.449162 12.5172 0.449505L12.5054 0.449487L12.4421 0.449389L12.2014 0.449029L11.3389 0.447834C10.6233 0.446898 9.66452 0.445773 8.69201 0.445024C6.75079 0.443528 4.7489 0.443505 4.52399 0.449562C4.2865 0.454487 4.12674 0.501008 4.02111 0.554509C3.96837 0.58122 3.93013 0.609176 3.90325 0.633295C3.88986 0.64531 3.87943 0.656237 3.87153 0.665392C3.86758 0.669964 3.86427 0.674081 3.86155 0.677655L3.8579 0.682592L3.85639 0.684732L3.85571 0.685715L3.85539 0.686185L3.85524 0.686415C3.85516 0.686528 3.85508 0.68664 3.97953 0.770384L3.85508 0.68664L3.84501 0.701615L3.83877 0.718552L2.74269 3.69517L2.74887 3.69745C2.7415 3.71426 2.73572 3.73164 2.73345 3.747L3.01753 3.79764C3.00414 3.82782 2.98578 3.85592 2.97376 3.86668C2.96266 3.87426 2.94382 3.88415 2.93668 3.88705C2.92486 3.89149 2.91526 3.89327 2.91321 3.89365L2.91306 3.89368C2.90739 3.89474 2.90382 3.89499 2.90542 3.89484C2.90718 3.89468 2.91235 3.89431 2.92242 3.89385C2.94178 3.89297 2.97179 3.89206 3.01254 3.89116C3.09365 3.88937 3.21323 3.88769 3.36621 3.88611C3.67198 3.88296 4.10908 3.88026 4.63397 3.87794C5.68365 3.8733 7.08335 3.87021 8.4832 3.86815C9.88302 3.86609 11.2828 3.86506 12.3327 3.86454L13.6013 3.86409L13.9567 3.86404L14.0504 3.86403L14.0744 3.86403H14.0805H14.082H14.0824C14.0825 3.86403 14.0825 3.86403 14.0825 3.71403ZM14.0825 3.71403L14.2231 3.66166L14.2985 3.86403H14.0825V3.71403ZM14.571 3.35099L14.6539 3.58195L14.8204 3.40428C14.8202 3.40448 14.8202 3.40445 14.8205 3.40421L14.8206 3.40412L14.8246 3.40029C14.8292 3.39612 14.8374 3.389 14.8494 3.37992C14.8734 3.36177 14.9123 3.33577 14.9675 3.30967C15.077 3.25784 15.2539 3.20388 15.51 3.21344C15.5557 3.21515 15.6025 3.21648 15.6498 3.21783C15.9077 3.22516 16.1836 3.23301 16.4143 3.30556C16.5468 3.34724 16.6512 3.40692 16.7236 3.49003C16.7941 3.57089 16.8447 3.68582 16.8498 3.85931C16.8542 4.00921 16.7954 4.10234 16.7019 4.16964C16.6 4.24309 16.4515 4.28809 16.284 4.31108C16.1193 4.33368 15.9515 4.33303 15.8231 4.32646C15.7594 4.32319 15.7063 4.31852 15.6694 4.31477C15.651 4.3129 15.6366 4.31125 15.6266 4.3101L15.6142 4.30866L15.6074 4.30798C15.6072 4.30796 15.6065 4.3079 15.6054 4.30783C15.6034 4.30768 15.6002 4.30748 15.5964 4.30742C15.5964 4.30742 15.5838 4.30695 15.5686 4.30956C15.5616 4.31107 15.5447 4.31763 15.5268 4.32683L15.5253 4.32401L15.4028 4.38696L15.2246 4.47847L15.3626 4.62369L15.9306 5.22176V9.72549C15.9255 9.73175 15.9185 9.7392 15.9092 9.74697C15.8803 9.77105 15.8179 9.80803 15.6926 9.80803C15.5325 9.80803 14.9161 9.81857 14.3423 9.82904C14.0548 9.83429 13.7772 9.83954 13.5715 9.84347L13.3246 9.84822L13.2583 9.84951C13.2544 9.84799 13.2499 9.84618 13.245 9.84405C13.223 9.83453 13.1943 9.81977 13.1665 9.79895C13.1121 9.75823 13.0683 9.7016 13.0683 9.61331V9.03477V8.88477H12.9183H8.90167H8.10174H4.08505H3.93505V9.03477V9.61331C3.93505 9.7016 3.89135 9.75823 3.83692 9.79895C3.8091 9.81977 3.78044 9.83453 3.75841 9.84405C3.7535 9.84618 3.74903 9.84799 3.74511 9.84951L3.67878 9.84822L3.43186 9.84347C3.22616 9.83954 2.94858 9.83429 2.6611 9.82904C2.08725 9.81857 1.47088 9.80803 1.31082 9.80803C1.18549 9.80803 1.12305 9.77105 1.09422 9.74697C1.08491 9.7392 1.0779 9.73175 1.07277 9.72549V5.21876L1.64084 4.62069L1.77877 4.47548L1.60062 4.38396L1.47808 4.32101L1.43504 4.2989L1.38729 4.3061L1.38726 4.3061L1.3872 4.30611L1.38681 4.30617L1.38442 4.30651L1.37386 4.30795C1.36435 4.3092 1.35003 4.31099 1.33159 4.31302C1.29468 4.31708 1.24151 4.32208 1.17761 4.32565C1.04895 4.33285 0.880865 4.33403 0.716047 4.31178C0.548502 4.28916 0.400031 4.24432 0.298145 4.17088C0.204833 4.10362 0.145821 4.01018 0.15023 3.8593C0.155326 3.68492 0.206021 3.56935 0.276547 3.48809C0.348996 3.40461 0.453405 3.3447 0.58584 3.30289C0.816584 3.23003 1.09262 3.22217 1.35066 3.21482C1.39785 3.21348 1.44443 3.21215 1.49002 3.21045C1.74608 3.20088 1.92304 3.25484 2.03254 3.30667C2.08769 3.33277 2.12664 3.35877 2.15058 3.37692C2.16255 3.38601 2.17076 3.39312 2.17535 3.39729L2.17942 3.40112L2.34614 3.57895L2.42896 3.348L3.45015 0.500273L3.45015 0.500275L3.45062 0.49894C3.52978 0.271446 3.66377 0.198054 3.76994 0.171864C3.82715 0.157752 3.88093 0.156582 3.92084 0.159227C3.94055 0.160533 3.95614 0.162719 3.96614 0.164416L3.97649 0.166371L3.9778 0.166659L3.99526 0.171065L4.01423 0.170982L8.1024 0.152996L8.25174 0.152339V0.151133L8.49887 0.152994V0.152998H8.5H8.74826V0.155337L8.8976 0.155994L12.9858 0.173979L13.0043 0.174061L13.0212 0.169894L13.0214 0.16985L13.0214 0.169841L13.0218 0.169752L13.0222 0.169657L13.0227 0.169567L13.0331 0.167664C13.0431 0.166017 13.0587 0.163907 13.0785 0.16269C13.1184 0.160225 13.1723 0.161609 13.2297 0.175902C13.3364 0.202488 13.4704 0.276231 13.5495 0.502177L13.5499 0.503271L14.571 3.35099ZM6.08659 7.73693L6.08745 7.73693L10.7841 7.70995V7.55995L10.7849 7.70995L10.7845 7.70995C10.9583 7.7099 11.1646 7.67952 11.2942 7.49724C11.2943 7.49712 11.2944 7.49701 11.2944 7.49689L11.4802 7.23819C11.5158 7.19071 11.5461 7.13489 11.5622 7.07079C11.5823 6.99944 11.6104 6.87003 11.5815 6.7476C11.5659 6.68159 11.5321 6.61108 11.4663 6.5567C11.4004 6.50235 11.3167 6.47588 11.2228 6.47184L11.2228 6.4717H11.2164H5.85852C5.75393 6.4717 5.64142 6.49358 5.54188 6.55173C5.47757 6.58883 5.39997 6.65009 5.35718 6.74846C5.31232 6.85157 5.31657 6.96994 5.36958 7.09637L5.36918 7.09654L5.3744 7.10674L5.53086 7.41226L5.6645 7.34413L5.53098 7.4125L5.53087 7.41228C5.634 7.61454 5.85241 7.73693 6.08659 7.73693ZM2.30115 5.8753C2.30115 6.47609 2.84973 6.93357 3.48255 6.93357C4.11537 6.93357 4.66395 6.47609 4.66395 5.8753C4.66395 5.27451 4.11537 4.81703 3.48255 4.81703C2.84973 4.81703 2.30115 5.27451 2.30115 5.8753ZM12.3497 5.8753C12.3497 6.47609 12.8982 6.93357 13.5311 6.93357C14.1639 6.93357 14.7125 6.47609 14.7125 5.8753C14.7125 5.27451 14.1639 4.81703 13.5311 4.81703C12.8982 4.81703 12.3497 5.27451 12.3497 5.8753Z" stroke="#F00000" stroke-width="0.3"/>
</svg>
