<svg width="14" height="12" viewBox="0 0 14 12" fill="none" xmlns="http://www.w3.org/2000/svg">
<path d="M0.159279 5.68854L0.159541 5.68864L0.155586 5.69697C0.148463 5.71195 0.14606 5.73569 0.161332 5.76585L0.161545 5.76574L0.164948 5.77352L1.37318 8.53608L1.37319 8.53608L1.37399 8.53796C1.39347 8.58421 1.45443 8.62312 1.5235 8.61388L1.52481 8.61372C1.69555 8.59243 1.86885 8.5779 2.04741 8.5779C3.98567 8.5779 5.66302 9.9349 5.94255 11.7442C5.952 11.7992 6.00505 11.85 6.0835 11.85L12.8362 11.85C13.4045 11.85 13.85 11.4223 13.85 10.9116L13.85 1.09185C13.85 0.583446 13.4069 0.15 12.8362 0.15L4.81226 0.150001C4.11314 0.150001 3.44076 0.340085 2.86537 0.705488L2.86415 0.706246C2.24909 1.08862 1.7889 1.63244 1.53067 2.27758L1.53058 2.27779L0.159279 5.68854ZM1.27636 6.39781L1.27622 6.39785L1.27426 6.39162C1.24651 6.30337 1.24565 6.20287 1.28072 6.10995L1.28069 6.10994L1.28184 6.10707L2.48987 3.09544C2.48989 3.0954 2.4899 3.09537 2.48992 3.09533C2.68396 2.60651 3.032 2.19717 3.49888 1.90728C3.93435 1.63581 4.43624 1.49298 4.9568 1.49298L12.6843 1.49298C12.9219 1.49298 13.1234 1.67337 13.1234 1.91334L13.1234 6.82149C13.1234 6.93977 13.0698 7.04762 12.9906 7.12168C12.9061 7.2007 12.7949 7.24185 12.6843 7.24185L1.89546 7.24185C1.70865 7.24185 1.54436 7.12848 1.48095 6.96136L1.48094 6.96136L1.4802 6.95933L1.27636 6.39781ZM12.6843 10.5174L6.26881 10.5174C6.03122 10.5174 5.82972 10.337 5.82972 10.0971C5.82972 9.85467 6.0375 9.67669 6.27251 9.67669L12.6843 9.67669C12.9219 9.67669 13.1234 9.85708 13.1234 10.0971C13.1234 10.3382 12.9169 10.5174 12.6843 10.5174ZM3.93759 8.33717L2.18825 8.33717C1.95127 8.33717 1.7502 8.15771 1.74917 7.91866C1.74412 7.66772 1.96114 7.49645 2.18825 7.49645L3.93759 7.49645C4.17518 7.49645 4.37668 7.67683 4.37668 7.91681C4.37668 8.16268 4.16888 8.33717 3.93759 8.33717Z" stroke="#F00000" stroke-width="0.3"/>
</svg>
