<?xml version="1.0" encoding="utf-8"?>
<!-- Generator: Adobe Illustrator 27.2.0, SVG Export Plug-In . SVG Version: 6.00 Build 0)  -->
<svg version="1.1" id="Layer_1" xmlns="http://www.w3.org/2000/svg" xmlns:xlink="http://www.w3.org/1999/xlink" x="0px" y="0px"
	 viewBox="0 0 663 383" style="enable-background:new 0 0 663 383;" xml:space="preserve">
<style type="text/css">
	.st0{fill:#FFFFFF;}
	.st1{fill:#D71F26;}
</style>
<g>
	<path class="st0" d="M122.76,288.01c0,6.22-1.15,11.59-3.46,16.11c-2.31,4.52-5.35,8.23-9.13,11.14
		c-3.78,2.91-8.05,5.05-12.79,6.42c-4.75,1.37-9.57,2.06-14.45,2.06H56.43v-71.05h25.69c5.02,0,9.97,0.59,14.85,1.76
		c4.88,1.17,9.23,3.11,13.05,5.82c3.81,2.71,6.89,6.34,9.23,10.89C121.59,275.7,122.76,281.32,122.76,288.01z M104.9,288.01
		c0-4.01-0.65-7.34-1.96-9.98c-1.3-2.64-3.04-4.75-5.22-6.32c-2.17-1.57-4.65-2.69-7.43-3.36c-2.78-0.67-5.64-1-8.58-1h-8.53v41.55
		h8.13c3.08,0,6.04-0.35,8.88-1.05c2.84-0.7,5.35-1.86,7.53-3.46c2.17-1.61,3.91-3.75,5.22-6.42
		C104.24,295.27,104.9,291.96,104.9,288.01z"/>
	<path class="st0" d="M165.61,287.31c-0.74-0.2-1.46-0.33-2.16-0.4c-0.7-0.07-1.39-0.1-2.06-0.1c-2.21,0-4.06,0.4-5.57,1.2
		c-1.5,0.8-2.71,1.77-3.61,2.9c-0.9,1.14-1.56,2.37-1.96,3.7c-0.4,1.33-0.6,2.5-0.6,3.5v25.62h-16.46v-49.92h15.85v7.23h0.2
		c1.27-2.56,3.08-4.65,5.42-6.26c2.34-1.62,5.05-2.43,8.13-2.43c0.67,0,1.32,0.03,1.96,0.1c0.64,0.07,1.15,0.17,1.55,0.3
		L165.61,287.31z"/>
	<path class="st0" d="M190.8,257.81c0,1.27-0.25,2.46-0.75,3.56c-0.5,1.1-1.17,2.06-2.01,2.86c-0.84,0.8-1.84,1.44-3.01,1.91
		c-1.17,0.47-2.39,0.7-3.66,0.7c-2.68,0-4.92-0.89-6.72-2.66c-1.81-1.77-2.71-3.9-2.71-6.37c0-1.2,0.23-2.36,0.7-3.46
		c0.47-1.1,1.14-2.06,2.01-2.86c0.87-0.8,1.87-1.45,3.01-1.96c1.14-0.5,2.37-0.75,3.71-0.75c1.27,0,2.49,0.23,3.66,0.7
		c1.17,0.47,2.17,1.1,3.01,1.91c0.84,0.8,1.5,1.76,2.01,2.86C190.55,255.35,190.8,256.54,190.8,257.81z M173.14,323.74v-49.98h16.46
		v49.98H173.14z"/>
	<path class="st0" d="M233.55,323.74h-17.76l-19.67-49.98h18.17l10.54,32.41h0.3l10.54-32.41h17.56L233.55,323.74z"/>
	<path class="st0" d="M309.11,299.35c0,0.67,0,1.34,0,2.01c0,0.67-0.03,1.3-0.1,1.91h-36.23c0.13,1.4,0.55,2.68,1.26,3.81
		c0.7,1.14,1.61,2.12,2.71,2.96c1.1,0.84,2.34,1.49,3.71,1.96c1.37,0.47,2.79,0.7,4.26,0.7c2.61,0,4.82-0.48,6.62-1.46
		c1.81-0.97,3.28-2.22,4.42-3.76l11.44,7.23c-2.34,3.41-5.44,6.04-9.28,7.88c-3.85,1.84-8.31,2.76-13.4,2.76
		c-3.75,0-7.29-0.59-10.64-1.76c-3.35-1.17-6.27-2.88-8.78-5.12c-2.51-2.24-4.48-5-5.92-8.28c-1.44-3.28-2.16-7.02-2.16-11.24
		c0-4.08,0.7-7.78,2.11-11.09c1.4-3.31,3.31-6.12,5.72-8.43c2.41-2.31,5.25-4.1,8.53-5.37c3.28-1.27,6.82-1.91,10.64-1.91
		c3.68,0,7.06,0.62,10.14,1.86c3.08,1.24,5.72,3.03,7.93,5.37c2.21,2.34,3.93,5.19,5.17,8.53
		C308.49,291.26,309.11,295.07,309.11,299.35z M293.96,293.03c0-2.61-0.82-4.85-2.46-6.72c-1.64-1.87-4.1-2.81-7.38-2.81
		c-1.6,0-3.08,0.25-4.42,0.75s-2.51,1.19-3.51,2.06c-1,0.87-1.81,1.89-2.41,3.06c-0.6,1.17-0.94,2.39-1,3.66H293.96z"/>
	<path class="st0" d="M351.76,287.31c-0.74-0.2-1.46-0.33-2.16-0.4c-0.7-0.07-1.39-0.1-2.06-0.1c-2.21,0-4.06,0.4-5.57,1.2
		c-1.5,0.8-2.71,1.77-3.61,2.9c-0.9,1.14-1.56,2.37-1.96,3.7c-0.4,1.33-0.6,2.5-0.6,3.5v25.62h-16.46v-49.92h15.85v7.23h0.2
		c1.27-2.56,3.08-4.65,5.42-6.26c2.34-1.62,5.05-2.43,8.13-2.43c0.67,0,1.32,0.03,1.96,0.1c0.64,0.07,1.15,0.17,1.55,0.3
		L351.76,287.31z"/>
	<path class="st0" d="M388.49,288.52c-1.34-1.27-2.91-2.34-4.72-3.21c-1.81-0.87-3.71-1.3-5.72-1.3c-1.54,0-2.96,0.3-4.27,0.9
		c-1.3,0.6-1.96,1.64-1.96,3.11c0,1.4,0.72,2.41,2.16,3.01c1.44,0.6,3.76,1.27,6.97,2.01c1.87,0.4,3.76,0.97,5.67,1.71
		c1.91,0.74,3.63,1.71,5.17,2.91c1.54,1.2,2.78,2.68,3.71,4.42c0.94,1.74,1.4,3.81,1.4,6.22c0,3.15-0.64,5.8-1.91,7.98
		c-1.27,2.17-2.93,3.93-4.97,5.27c-2.04,1.34-4.33,2.31-6.87,2.91c-2.54,0.6-5.09,0.9-7.63,0.9c-4.08,0-8.08-0.65-11.99-1.96
		c-3.91-1.3-7.18-3.23-9.79-5.77l9.23-9.73c1.47,1.61,3.28,2.94,5.42,4.01c2.14,1.07,4.42,1.61,6.82,1.61
		c1.34,0,2.66-0.32,3.96-0.95c1.3-0.64,1.96-1.76,1.96-3.36c0-1.54-0.8-2.68-2.41-3.41c-1.61-0.74-4.11-1.5-7.53-2.31
		c-1.74-0.4-3.48-0.94-5.22-1.61c-1.74-0.67-3.3-1.57-4.67-2.71c-1.37-1.14-2.49-2.54-3.36-4.21c-0.87-1.67-1.3-3.68-1.3-6.02
		c0-3.01,0.64-5.57,1.91-7.68c1.27-2.11,2.91-3.83,4.92-5.17c2.01-1.34,4.23-2.32,6.67-2.96c2.44-0.64,4.87-0.95,7.28-0.95
		c3.75,0,7.41,0.59,10.99,1.76c3.58,1.17,6.61,2.93,9.08,5.27L388.49,288.52z"/>
	<path class="st1" d="M483.32,322.49c-4.62,2.11-9.93,3.16-15.96,3.16c-5.49,0-10.55-0.9-15.2-2.71c-4.65-1.81-8.68-4.37-12.09-7.68
		c-3.41-3.31-6.09-7.28-8.03-11.89c-1.94-4.62-2.91-9.7-2.91-15.25c0-5.69,0.99-10.84,2.96-15.45c1.97-4.62,4.7-8.55,8.18-11.79
		c3.48-3.24,7.56-5.74,12.24-7.48c4.68-1.74,9.73-2.61,15.15-2.61c5.02,0,9.95,0.89,14.8,2.66c4.85,1.77,8.78,4.37,11.79,7.78
		l-11.64,11.64c-1.61-2.21-3.71-3.85-6.32-4.92c-2.61-1.07-5.29-1.61-8.03-1.61c-3.01,0-5.77,0.55-8.28,1.66
		c-2.51,1.1-4.67,2.63-6.47,4.57c-1.81,1.94-3.21,4.23-4.22,6.87c-1,2.64-1.5,5.54-1.5,8.68c0,3.21,0.5,6.16,1.5,8.83
		c1,2.68,2.39,4.97,4.16,6.87c1.77,1.91,3.9,3.4,6.37,4.47c2.47,1.07,5.18,1.61,8.13,1.61c3.41,0,6.39-0.67,8.93-2.01
		c2.54-1.34,4.58-3.08,6.12-5.22l11.94,11.24C491.82,317.52,487.94,320.38,483.32,322.49z"/>
	<path class="st1" d="M519.25,257.81c0,1.27-0.25,2.46-0.75,3.56c-0.5,1.1-1.17,2.06-2.01,2.86c-0.84,0.8-1.84,1.44-3.01,1.91
		c-1.17,0.47-2.39,0.7-3.66,0.7c-2.68,0-4.92-0.89-6.72-2.66c-1.81-1.77-2.71-3.9-2.71-6.37c0-1.2,0.23-2.36,0.7-3.46
		c0.47-1.1,1.14-2.06,2.01-2.86c0.87-0.8,1.87-1.45,3.01-1.96c1.14-0.5,2.37-0.75,3.71-0.75c1.27,0,2.49,0.23,3.66,0.7
		c1.17,0.47,2.17,1.1,3.01,1.91c0.84,0.8,1.5,1.76,2.01,2.86C519,255.35,519.25,256.54,519.25,257.81z M501.59,323.74v-49.98h16.46
		v49.98H501.59z"/>
	<path class="st1" d="M548.95,286.01v19.14c0,2.35,0.45,4.11,1.35,5.29c0.9,1.18,2.52,1.76,4.87,1.76c0.8,0,1.66-0.07,2.56-0.2
		c0.9-0.13,1.66-0.33,2.26-0.6l0.2,12.04c-1.14,0.4-2.58,0.75-4.31,1.05c-1.74,0.3-3.48,0.45-5.22,0.45c-3.35,0-6.16-0.42-8.43-1.26
		c-2.28-0.84-4.1-2.04-5.47-3.62c-1.37-1.58-2.36-3.45-2.96-5.63c-0.6-2.18-0.9-4.61-0.9-7.29v-21.13h-8.03v-12.24h7.93v-13.15
		h16.16v13.15h11.74v12.24H548.95z"/>
	<path class="st1" d="M596.62,331.27c-1,2.61-2.12,4.93-3.36,6.97c-1.24,2.04-2.71,3.78-4.42,5.22c-1.71,1.44-3.71,2.52-6.02,3.26
		c-2.31,0.74-5.03,1.1-8.18,1.1c-1.54,0-3.13-0.1-4.77-0.3c-1.64-0.2-3.06-0.47-4.26-0.8l1.81-13.85c0.8,0.27,1.69,0.48,2.66,0.65
		c0.97,0.17,1.86,0.25,2.66,0.25c2.54,0,4.38-0.59,5.52-1.76c1.14-1.17,2.11-2.83,2.91-4.97l1.61-4.11l-20.87-49.17h18.26
		l11.14,32.11h0.3l9.93-32.11H619L596.62,331.27z"/>
</g>
<g id="XMLID_15_">
	<path id="XMLID_22_" class="st1" d="M191.43,58.64l34.99,35.35h45.16c0,0,20.59-0.79,26.24,21.42L319.1,82
		c0,0-16.59-23.45-49.27-23.36H191.43z"/>
	<path id="XMLID_19_" class="st0" d="M478.44,58.64H371.29c0,0-25.95-3.27-48.11,28.39c0,0-26.82,55.15-49.27,59.34h-45.55v-22.26
		h-36.93v56.04c0,0,89.18,0,88.02,0s28.86,4.04,55.54-46.11c0,0,23.76-42.14,38.34-40.57h70.12L478.44,58.64z"/>
	<path id="XMLID_18_" class="st1" d="M397.1,146.02h-19.21c-5.14,0-10.24-1.21-14.73-3.71c-5.95-3.3-12.13-9.41-11.98-20.49
		l-22.74,36.31c0,0,20.99,21.56,38.19,22h63.71L397.1,146.02z"/>
	<polygon id="XMLID_17_" class="st1" points="409.78,146.24 442.14,180.15 478.44,180.15 444.33,146.03 	"/>
</g>
</svg>
