<?xml version="1.0" encoding="utf-8"?>
<!-- Generator: Adobe Illustrator 27.2.0, SVG Export Plug-In . SVG Version: 6.00 Build 0)  -->
<svg version="1.1" id="Layer_1" xmlns="http://www.w3.org/2000/svg" xmlns:xlink="http://www.w3.org/1999/xlink" x="0px" y="0px"
	 viewBox="0 0 611 97" style="enable-background:new 0 0 611 97;" xml:space="preserve">
<style type="text/css">
	.st0{fill:#FFFFFF;}
	.st1{fill:#D71F26;}
</style>
<g>
	<path class="st0" d="M267.12,46.03c0,4.05-0.75,7.54-2.25,10.48c-1.5,2.94-3.48,5.35-5.94,7.25c-2.46,1.89-5.23,3.29-8.32,4.18
		c-3.09,0.89-6.23,1.34-9.4,1.34h-17.24V23.04h16.72c3.26,0,6.49,0.38,9.66,1.14c3.18,0.76,6.01,2.02,8.49,3.79
		c2.48,1.76,4.48,4.12,6.01,7.08C266.36,38.02,267.12,41.68,267.12,46.03z M255.5,46.03c0-2.61-0.42-4.78-1.27-6.5
		c-0.85-1.72-1.98-3.09-3.39-4.11c-1.41-1.02-3.03-1.75-4.83-2.19c-1.81-0.43-3.67-0.65-5.58-0.65h-5.55v27.03h5.29
		c2,0,3.93-0.23,5.78-0.69c1.85-0.46,3.48-1.21,4.9-2.25c1.41-1.04,2.55-2.44,3.39-4.18C255.07,50.75,255.5,48.6,255.5,46.03z"/>
	<path class="st0" d="M295,45.57c-0.48-0.13-0.95-0.22-1.4-0.26c-0.46-0.04-0.9-0.07-1.34-0.07c-1.44,0-2.64,0.26-3.62,0.78
		c-0.98,0.52-1.76,1.15-2.35,1.89c-0.59,0.74-1.01,1.54-1.27,2.41c-0.26,0.87-0.39,1.63-0.39,2.28v16.67h-10.71V36.79h10.32v4.7
		h0.13c0.83-1.67,2-3.02,3.53-4.08c1.52-1.05,3.29-1.58,5.29-1.58c0.43,0,0.86,0.02,1.27,0.07c0.41,0.04,0.75,0.11,1.01,0.2
		L295,45.57z"/>
	<path class="st0" d="M311.39,26.37c0,0.83-0.16,1.6-0.49,2.32c-0.33,0.72-0.76,1.34-1.31,1.86c-0.54,0.52-1.2,0.94-1.96,1.24
		c-0.76,0.31-1.56,0.46-2.38,0.46c-1.74,0-3.2-0.58-4.38-1.73c-1.18-1.15-1.76-2.54-1.76-4.15c0-0.78,0.15-1.53,0.46-2.25
		c0.3-0.72,0.74-1.34,1.31-1.86c0.57-0.52,1.22-0.95,1.96-1.27c0.74-0.33,1.54-0.49,2.42-0.49c0.83,0,1.62,0.15,2.38,0.46
		c0.76,0.31,1.41,0.72,1.96,1.24c0.54,0.52,0.98,1.14,1.31,1.86C311.22,24.77,311.39,25.55,311.39,26.37z M299.9,69.27V36.76h10.71
		v32.52H299.9z"/>
	<path class="st0" d="M339.2,69.27h-11.56l-12.8-32.52h11.82l6.86,21.09h0.2l6.86-21.09H352L339.2,69.27z"/>
	<path class="st0" d="M388.37,53.41c0,0.44,0,0.87,0,1.31c0,0.44-0.02,0.85-0.07,1.24h-23.57c0.09,0.91,0.36,1.74,0.82,2.48
		c0.46,0.74,1.04,1.38,1.76,1.93c0.72,0.54,1.52,0.97,2.42,1.27c0.89,0.31,1.82,0.46,2.77,0.46c1.7,0,3.13-0.32,4.31-0.95
		c1.18-0.63,2.13-1.45,2.87-2.45l7.44,4.7c-1.52,2.22-3.54,3.93-6.04,5.13c-2.5,1.2-5.41,1.8-8.72,1.8c-2.44,0-4.75-0.38-6.92-1.14
		c-2.18-0.76-4.08-1.87-5.71-3.33c-1.63-1.46-2.92-3.25-3.85-5.39c-0.94-2.13-1.4-4.57-1.4-7.31c0-2.65,0.46-5.06,1.37-7.22
		c0.91-2.15,2.15-3.98,3.72-5.48c1.57-1.5,3.42-2.67,5.55-3.49c2.13-0.83,4.44-1.24,6.92-1.24c2.39,0,4.59,0.4,6.6,1.21
		c2,0.81,3.72,1.97,5.16,3.49c1.44,1.52,2.56,3.37,3.36,5.55C387.97,48.14,388.37,50.62,388.37,53.41z M378.51,49.29
		c0-1.7-0.53-3.16-1.6-4.37c-1.07-1.22-2.67-1.83-4.8-1.83c-1.04,0-2,0.16-2.87,0.49c-0.87,0.33-1.63,0.77-2.28,1.34
		c-0.65,0.57-1.18,1.23-1.57,1.99c-0.39,0.76-0.61,1.56-0.65,2.38H378.51z"/>
	<path class="st0" d="M416.12,45.57c-0.48-0.13-0.95-0.22-1.4-0.26c-0.46-0.04-0.9-0.07-1.34-0.07c-1.44,0-2.64,0.26-3.62,0.78
		c-0.98,0.52-1.76,1.15-2.35,1.89c-0.59,0.74-1.01,1.54-1.27,2.41c-0.26,0.87-0.39,1.63-0.39,2.28v16.67h-10.71V36.79h10.32v4.7
		h0.13c0.83-1.67,2-3.02,3.53-4.08c1.52-1.05,3.29-1.58,5.29-1.58c0.43,0,0.86,0.02,1.27,0.07c0.41,0.04,0.75,0.11,1.01,0.2
		L416.12,45.57z"/>
	<path class="st0" d="M440.02,46.35c-0.87-0.83-1.89-1.52-3.07-2.09c-1.18-0.57-2.42-0.85-3.72-0.85c-1,0-1.93,0.2-2.78,0.59
		c-0.85,0.39-1.27,1.07-1.27,2.02c0,0.91,0.47,1.57,1.4,1.96c0.94,0.39,2.45,0.83,4.54,1.31c1.22,0.26,2.45,0.63,3.69,1.11
		c1.24,0.48,2.36,1.11,3.36,1.89c1,0.78,1.81,1.74,2.42,2.87c0.61,1.13,0.91,2.48,0.91,4.05c0,2.05-0.41,3.78-1.24,5.19
		c-0.83,1.41-1.9,2.56-3.23,3.43c-1.33,0.87-2.82,1.5-4.47,1.89c-1.65,0.39-3.31,0.59-4.96,0.59c-2.66,0-5.26-0.42-7.8-1.27
		c-2.55-0.85-4.67-2.1-6.37-3.75l6.01-6.33c0.96,1.04,2.13,1.92,3.53,2.61c1.39,0.7,2.87,1.04,4.44,1.04c0.87,0,1.73-0.21,2.58-0.62
		c0.85-0.41,1.27-1.14,1.27-2.19c0-1-0.52-1.74-1.57-2.22c-1.04-0.48-2.68-0.98-4.9-1.5c-1.13-0.26-2.26-0.61-3.39-1.04
		c-1.13-0.43-2.14-1.02-3.04-1.76c-0.89-0.74-1.62-1.65-2.19-2.74c-0.57-1.09-0.85-2.39-0.85-3.92c0-1.96,0.41-3.62,1.24-5
		c0.83-1.37,1.89-2.49,3.2-3.36c1.31-0.87,2.75-1.51,4.34-1.93c1.59-0.41,3.17-0.62,4.73-0.62c2.44,0,4.82,0.38,7.15,1.14
		c2.33,0.76,4.3,1.9,5.91,3.43L440.02,46.35z"/>
	<path class="st1" d="M501.72,68.46c-3,1.37-6.46,2.06-10.38,2.06c-3.57,0-6.87-0.59-9.89-1.76c-3.03-1.18-5.65-2.84-7.87-5
		c-2.22-2.15-3.96-4.73-5.22-7.74c-1.26-3-1.89-6.31-1.89-9.92c0-3.7,0.64-7.05,1.93-10.06c1.28-3,3.06-5.56,5.32-7.67
		c2.26-2.11,4.92-3.73,7.97-4.86c3.05-1.13,6.33-1.7,9.86-1.7c3.26,0,6.47,0.58,9.63,1.73c3.16,1.15,5.71,2.84,7.67,5.06l-7.57,7.57
		c-1.04-1.44-2.42-2.5-4.11-3.2c-1.7-0.7-3.44-1.04-5.22-1.04c-1.96,0-3.75,0.36-5.39,1.08c-1.63,0.72-3.04,1.71-4.21,2.97
		c-1.18,1.26-2.09,2.75-2.74,4.47c-0.65,1.72-0.98,3.6-0.98,5.65c0,2.09,0.33,4.01,0.98,5.75c0.65,1.74,1.56,3.23,2.71,4.47
		c1.15,1.24,2.54,2.21,4.15,2.91c1.61,0.7,3.37,1.04,5.29,1.04c2.22,0,4.16-0.43,5.81-1.31c1.65-0.87,2.98-2,3.98-3.4l7.77,7.31
		C507.25,65.22,504.72,67.09,501.72,68.46z"/>
	<path class="st1" d="M525.1,26.37c0,0.83-0.16,1.6-0.49,2.32c-0.33,0.72-0.76,1.34-1.31,1.86c-0.54,0.52-1.2,0.94-1.96,1.24
		c-0.76,0.31-1.56,0.46-2.38,0.46c-1.74,0-3.2-0.58-4.38-1.73c-1.18-1.15-1.76-2.54-1.76-4.15c0-0.78,0.15-1.53,0.46-2.25
		c0.3-0.72,0.74-1.34,1.31-1.86c0.57-0.52,1.22-0.95,1.96-1.27c0.74-0.33,1.54-0.49,2.42-0.49c0.83,0,1.62,0.15,2.38,0.46
		c0.76,0.31,1.41,0.72,1.96,1.24c0.54,0.52,0.98,1.14,1.31,1.86C524.93,24.77,525.1,25.55,525.1,26.37z M513.6,69.27V36.76h10.71
		v32.52H513.6z"/>
	<path class="st1" d="M544.42,44.72v12.45c0,1.53,0.29,2.68,0.88,3.44c0.59,0.77,1.64,1.15,3.17,1.15c0.52,0,1.08-0.04,1.66-0.13
		c0.59-0.09,1.08-0.22,1.47-0.39l0.13,7.84c-0.74,0.26-1.68,0.49-2.81,0.69c-1.13,0.2-2.26,0.29-3.4,0.29
		c-2.18,0-4.01-0.27-5.48-0.82c-1.48-0.54-2.67-1.33-3.56-2.36c-0.89-1.03-1.53-2.25-1.93-3.67c-0.39-1.42-0.59-3-0.59-4.75V44.72
		h-5.22v-7.97h5.16V28.2h10.51v8.55h7.64v7.97H544.42z"/>
	<path class="st1" d="M575.44,74.17c-0.65,1.7-1.38,3.21-2.19,4.54c-0.81,1.33-1.76,2.46-2.87,3.4c-1.11,0.94-2.42,1.64-3.92,2.12
		c-1.5,0.48-3.28,0.72-5.32,0.72c-1,0-2.04-0.07-3.1-0.2c-1.07-0.13-1.99-0.31-2.77-0.52l1.18-9.01c0.52,0.17,1.1,0.32,1.73,0.42
		c0.63,0.11,1.21,0.16,1.73,0.16c1.65,0,2.85-0.38,3.59-1.14c0.74-0.76,1.37-1.84,1.89-3.23l1.04-2.68l-13.58-31.99h11.88
		l7.25,20.89h0.2l6.46-20.89H590L575.44,74.17z"/>
</g>
<g id="XMLID_15_">
	<path id="XMLID_22_" class="st1" d="M10.43,10.06l22.37,22.61h28.88c0,0,13.17-0.5,16.78,13.7L92.08,25c0,0-10.61-15-31.51-14.94
		H10.43z"/>
	<path id="XMLID_19_" class="st0" d="M193.97,10.06h-68.52c0,0-16.59-2.09-30.76,18.15c0,0-17.15,35.27-31.51,37.95H34.05V51.93
		H10.43v35.84c0,0,57.03,0,56.29,0c-0.75,0,18.46,2.58,35.52-29.49c0,0,15.2-26.95,24.52-25.95h44.84L193.97,10.06z"/>
	<path id="XMLID_18_" class="st1" d="M141.95,65.94h-12.28c-3.29,0-6.55-0.78-9.42-2.37c-3.81-2.11-7.76-6.01-7.66-13.1L98.04,73.68
		c0,0,13.42,13.79,24.43,14.07h40.74L141.95,65.94z"/>
	<polygon id="XMLID_17_" class="st1" points="150.06,66.08 170.76,87.77 193.97,87.77 172.15,65.95 	"/>
</g>
</svg>
