<svg width="12" height="12" viewBox="0 0 12 12" fill="none" xmlns="http://www.w3.org/2000/svg">
<path d="M2.98943 9.79163L2.98943 9.79164L2.99018 9.7916C3.28096 9.77864 3.5687 9.79936 3.86621 9.82079C4.00329 9.83066 4.14245 9.84069 4.28493 9.84763L4.28524 9.84764C4.49303 9.85734 4.70393 9.87104 4.91658 9.88487C5.45404 9.9198 6.00264 9.95546 6.54025 9.92881L6.54063 9.92879C7.11895 9.89865 7.69366 9.78903 8.25147 9.68264C8.38553 9.65707 8.51861 9.63168 8.65053 9.60763C8.97959 9.54795 9.29733 9.43878 9.59321 9.33713C9.6064 9.33259 9.61954 9.32808 9.63264 9.32358L9.63265 9.32359L9.63419 9.32304C10.0217 9.18529 10.4275 9.1315 10.8556 9.15555C11.1409 9.17271 11.3566 9.28047 11.5217 9.44566C12.0097 9.94497 11.9492 10.8698 11.3695 11.3125L11.3694 11.3126C10.9241 11.6533 10.3756 11.848 9.72334 11.848L9.72307 11.848C9.00927 11.8493 8.29561 11.8489 7.58099 11.8485C7.22329 11.8483 6.86534 11.848 6.50701 11.848C6.17987 11.848 5.85274 11.8475 5.52556 11.847C4.76183 11.8458 3.99786 11.8446 3.233 11.85C2.85664 11.8517 2.56308 11.752 2.33465 11.559C1.96864 11.2456 1.82136 10.8879 1.87495 10.4995C1.92477 10.1468 2.33778 9.81741 2.98943 9.79163Z" stroke="#F00000" stroke-width="0.3"/>
<path d="M2.13917 8.12991L2.13943 8.12989C2.50347 8.1118 2.86994 8.13575 3.22514 8.15897L2.13917 8.12991ZM2.13917 8.12991C1.70763 8.15212 1.30992 8.29354 1.01712 8.6333C1.01263 8.61459 1.00815 8.596 1.00371 8.57751C0.943654 8.32788 0.88837 8.09807 0.847652 7.86306C0.831936 7.76637 0.816208 7.66968 0.800482 7.57301C0.608584 6.39337 0.416959 5.21541 0.250619 4.03557L0.250559 4.03516M2.13917 8.12991L0.250559 4.03516M0.250559 4.03516C0.142847 3.28626 0.0960739 2.54129 0.241662 1.81296C0.303396 1.5154 0.403055 1.21792 0.535549 0.9435C0.757217 0.49981 1.1505 0.244601 1.67793 0.154841C1.81279 0.132293 1.91299 0.190648 2.02176 0.31466L2.02176 0.314665M0.250559 4.03516L2.02176 0.314665M2.02176 0.314665L2.02283 0.315865M2.02176 0.314665L2.02283 0.315865M2.02283 0.315865C2.25895 0.579297 2.33584 0.89998 2.34763 1.25984C2.3663 1.89148 2.17001 2.48288 1.88167 3.06299L1.88166 3.06299M2.02283 0.315865L1.88166 3.06299M1.88166 3.06299L1.88098 3.06439M1.88166 3.06299L1.88098 3.06439M1.88098 3.06439C1.84603 3.13658 1.82182 3.21694 1.83834 3.30451C1.85441 3.38963 1.90424 3.45473 1.95387 3.50727L1.95386 3.50727M1.88098 3.06439L1.95386 3.50727M1.95386 3.50727L1.95498 3.50843M1.95386 3.50727L1.95498 3.50843M1.95498 3.50843C2.84652 4.43223 3.58503 5.42418 3.91864 6.63497L3.91865 6.635M1.95498 3.50843L3.91865 6.635M3.91865 6.635C4.06419 7.16275 4.15219 7.69357 4.13314 8.2298L4.13304 8.2298M3.91865 6.635L4.13304 8.2298M4.13304 8.2298V8.23513M4.13304 8.2298V8.23513M4.13304 8.23513C4.13304 8.23863 4.13301 8.24212 4.13297 8.24559M4.13304 8.23513L4.13297 8.24559M4.13297 8.24559C4.11513 8.24337 4.09724 8.24114 4.07931 8.2389C3.86642 8.21235 3.6482 8.18513 3.43273 8.17222L4.13297 8.24559Z" stroke="#F00000" stroke-width="0.3"/>
</svg>
