<?xml version="1.0" encoding="utf-8"?>
<!-- Svg Vector Icons : http://www.onlinewebfonts.com/icon -->
<!DOCTYPE svg PUBLIC "-//W3C//DTD SVG 1.1//EN" "http://www.w3.org/Graphics/SVG/1.1/DTD/svg11.dtd">
<svg version="1.1" xmlns="http://www.w3.org/2000/svg" xmlns:xlink="http://www.w3.org/1999/xlink" x="0px" y="0px" viewBox="0 0 1000 1000" enable-background="new 0 0 1000 1000" xml:space="preserve">
<metadata> Svg Vector Icons : http://www.onlinewebfonts.com/icon </metadata>
<g><path d="M951.8,975.1c0,8-6,14.4-13.4,14.4h-38.5c-7.4,0-13.4-6.4-13.4-14.4V24.4c0-8,6-14.4,13.4-14.4h38.5c7.4,0,13.4,6.4,13.4,14.4V975.1z"/><path d="M533.5,975.6c0,8-6,14.4-13.4,14.4h-38.5c-7.4,0-13.4-6.4-13.4-14.4V24.9c0-8,6-14.4,13.4-14.4h38.5c7.4,0,13.4,6.4,13.4,14.4V975.6z"/><path d="M912.8,499.7c0,8-7.8,69.5-7.8,69.5s-730.1,0-788.7,0c-51.9-1.1-66.7-22.7-68.1-69.5c0-39.3,0-475.3,0-475.3c0-8,6-14.4,13.4-14.4h38.5c7.4,0,13.4,6.4,13.4,14.4c0,0-0.9,382.4,0,407.5c-0.5,58.6,9.5,70.3,68.1,67.8C243.6,499.8,912.8,499.7,912.8,499.7z"/></g>
</svg>